# xmcd
#
# Track frame offsets:
#	150
#	19920
#	33471
#	50407
#	62851
#	81037
#	100009
#	113188
#	127473
#	143628
#	161931
#	179645
#	195626
#	211503
#	223289
#
# Disc length: 3192 seconds
#
# Revision: 2
# Processed by: cddbd v1.5.2PL0 Copyright (c) Steve Scherf et al.
# Submitted via: audiograbber 1.83.01
#
DISCID=e30c760f
DTITLE=Various Artist - Classic Country - The '90s ...And Beyond [Disc 2]
DYEAR=2003
DGENRE=Country
TTITLE0=Melinda Schneider - The Story Of My Life
TTITLE1=Brooks and Dunn - Brand New Man
TTITLE2=Vince Gill - Don't Let Our Love Start Slippin' Away
TTITLE3=Lorrie Morgan - What Part Of No
TTITLE4=Sherrie Austin - One Solitary Tear
TTITLE5=Felicity - Country Girl (In The Urban World)
TTITLE6=John Anderson - Straight Tequila Night
TTITLE7=The Kentucky Headhunters - Oh Lonesome Me
TTITLE8=Mindy McCready - If I Don't Stay The Night
TTITLE9=Keith Whitley - It Ain't Nothin'
TTITLE10=Jamie O'Neal - There Is No Arizona
TTITLE11=Gina Jeffreys - Two Stars Fell
TTITLE12=Alabama - Jukebox In My Mind
TTITLE13=Martina McBride - My Baby Loves Me
TTITLE14=James Blundell - Age Of Grace
EXTD=
EXTT0=
EXTT1=
EXTT2=
EXTT3=
EXTT4=
EXTT5=
EXTT6=
EXTT7=
EXTT8=
EXTT9=
EXTT10=
EXTT11=
EXTT12=
EXTT13=
EXTT14=
PLAYORDER=
